<?xml version="1.0" encoding="UTF-8"?>
<svg version="1.1" xmlns="http://www.w3.org/2000/svg" width="256" height="256">
<path d="M0 0 C1.78216164 -0.01902626 1.78216164 -0.01902626 3.60032654 -0.03843689 C4.88472122 -0.03550125 6.16911591 -0.03256561 7.49243164 -0.02954102 C8.8104628 -0.03478287 10.12849396 -0.04002472 11.48646545 -0.04542542 C14.27655604 -0.05435998 17.06636047 -0.05193011 19.85644531 -0.04199219 C23.42897424 -0.03050626 27.00051419 -0.05070459 30.57291317 -0.07990932 C33.98363843 -0.10268793 37.3941321 -0.09580413 40.80493164 -0.09204102 C42.72848732 -0.10889198 42.72848732 -0.10889198 44.69090271 -0.12608337 C45.88216263 -0.11670242 47.07342255 -0.10732147 48.30078125 -0.09765625 C49.34874374 -0.09749008 50.39670624 -0.09732391 51.47642517 -0.09715271 C54.9100798 0.53124391 56.09810379 1.67938272 58.21508789 4.40405273 C58.60571289 6.98217773 58.60571289 6.98217773 58.46508789 9.65405273 C58.42899414 10.54608398 58.39290039 11.43811523 58.35571289 12.35717773 C58.30930664 13.03264648 58.26290039 13.70811523 58.21508789 14.40405273 C58.86582275 14.38834229 59.51655762 14.37263184 60.18701172 14.35644531 C63.13378213 14.29410624 66.08041387 14.2550659 69.02758789 14.21655273 C70.56382813 14.17884766 70.56382813 14.17884766 72.13110352 14.14038086 C73.60546875 14.12587891 73.60546875 14.12587891 75.10961914 14.11108398 C76.468573 14.08751831 76.468573 14.08751831 77.85498047 14.06347656 C80.21508789 14.40405273 80.21508789 14.40405273 81.97167969 15.73486328 C88.69444617 24.75971198 84.21508789 44.56484654 84.21508789 50.40405273 C113.91508789 50.40405273 143.61508789 50.40405273 174.21508789 50.40405273 C174.21508789 48.09405273 174.21508789 45.78405273 174.21508789 43.40405273 C175.80402861 41.81511201 177.46310213 42.23406862 179.65258789 42.21655273 C180.45567383 42.20237305 181.25875977 42.18819336 182.08618164 42.17358398 C184.21508789 42.40405273 184.21508789 42.40405273 186.21508789 44.40405273 C186.34008789 47.52905273 186.34008789 47.52905273 186.21508789 50.40405273 C188.85508789 50.40405273 191.49508789 50.40405273 194.21508789 50.40405273 C194.20348633 49.1162793 194.19188477 47.82850586 194.17993164 46.50170898 C194.17055519 44.82332501 194.16145484 43.14493948 194.15258789 41.46655273 C194.14420898 40.61641602 194.13583008 39.7662793 194.12719727 38.89038086 C194.12397461 38.08149414 194.12075195 37.27260742 194.11743164 36.43920898 C194.11219482 35.69034424 194.10695801 34.94147949 194.1015625 34.16992188 C194.21508789 32.40405273 194.21508789 32.40405273 195.21508789 31.40405273 C196.8793784 31.30581336 198.5479072 31.27431643 200.21508789 31.27905273 C201.57633789 31.27518555 201.57633789 31.27518555 202.96508789 31.27124023 C205.21508789 31.40405273 205.21508789 31.40405273 206.21508789 32.40405273 C206.29912289 33.76128318 206.32329939 35.12235097 206.32055664 36.48217773 C206.34279297 37.7293457 206.34279297 37.7293457 206.36547852 39.00170898 C206.3899972 40.75414938 206.39555485 42.50696916 206.38110352 44.25952148 C206.41300781 45.51442383 206.41300781 45.51442383 206.44555664 46.79467773 C206.44966553 47.558125 206.45377441 48.32157227 206.45800781 49.1081543 C207.64948548 52.72139389 210.20681372 54.14989973 213.21508789 56.40405273 C213.23490723 55.38456543 213.25472656 54.36507812 213.27514648 53.31469727 C213.35111597 49.53872625 213.43984598 45.763145 213.5324707 41.98754883 C213.57079641 40.35221033 213.60564296 38.7167865 213.63696289 37.08129883 C213.68253631 34.73284363 213.74054156 32.38497779 213.80102539 30.03686523 C213.8125766 29.30347931 213.82412781 28.57009338 213.83602905 27.81448364 C213.98734448 22.63179615 213.98734448 22.63179615 216.21508789 20.40405273 C218.34399414 20.17358398 218.34399414 20.17358398 220.77758789 20.21655273 C221.58325195 20.22299805 222.38891602 20.22944336 223.21899414 20.23608398 C225.21508789 20.40405273 225.21508789 20.40405273 226.21508789 21.40405273 C226.30828238 22.93888243 226.33254589 24.47797356 226.32861328 26.015625 C226.32853775 26.99656631 226.32846222 27.97750763 226.3283844 28.98817444 C226.32322311 30.05482834 226.31806183 31.12148224 226.31274414 32.22045898 C226.31062172 33.84974586 226.31062172 33.84974586 226.30845642 35.51194763 C226.30283837 38.99684348 226.29028282 42.48167615 226.27758789 45.96655273 C226.27257522 48.3226716 226.26801191 50.67879147 226.26391602 53.03491211 C226.25286308 58.82464738 226.2361074 64.61434554 226.21508789 70.40405273 C227.32883789 70.36280273 228.44258789 70.32155273 229.59008789 70.27905273 C233.21508789 70.40405273 233.21508789 70.40405273 235.21508789 72.40405273 C235.34008789 75.52905273 235.34008789 75.52905273 235.21508789 78.40405273 C229.54254192 81.24032572 222.55718709 79.40405273 216.21508789 79.40405273 C216.21508789 96.89405273 216.21508789 114.38405273 216.21508789 132.40405273 C217.20508789 132.40405273 218.19508789 132.40405273 219.21508789 132.40405273 C219.54508789 133.06405273 219.87508789 133.72405273 220.21508789 134.40405273 C221.16383789 134.19780273 222.11258789 133.99155273 223.09008789 133.77905273 C224.63696289 133.59342773 224.63696289 133.59342773 226.21508789 133.40405273 C226.87508789 134.06405273 227.53508789 134.72405273 228.21508789 135.40405273 C227.84008789 139.02905273 227.84008789 139.02905273 227.21508789 142.40405273 C228.20508789 142.73405273 229.19508789 143.06405273 230.21508789 143.40405273 C229.69732169 147.50852665 227.56881346 149.36104797 224.65258789 152.15405273 C223.4131543 153.35288086 223.4131543 153.35288086 222.14868164 154.57592773 C221.5105957 155.17920898 220.87250977 155.78249023 220.21508789 156.40405273 C220.43165039 157.04729492 220.64821289 157.69053711 220.87133789 158.35327148 C224.40724508 169.82859992 224.71732682 180.5184504 219.21508789 191.40405273 C214.08778061 199.82954362 206.82348502 205.95444086 197.38305664 208.99389648 C186.84950654 210.98673029 176.62432117 209.59582746 167.64086914 203.72045898 C161.76329433 199.31937639 161.76329433 199.31937639 159.91430664 196.23217773 C157.29024408 193.40904836 154.7790555 193.79172127 151.02758789 193.65405273 C148.77946289 193.57155273 146.53133789 193.48905273 144.21508789 193.40405273 C144.21508789 201.65405273 144.21508789 209.90405273 144.21508789 218.40405273 C146.31110352 218.35764648 148.40711914 218.31124023 150.56665039 218.26342773 C152.61203595 218.23217199 154.65739422 218.20791887 156.70288086 218.18432617 C158.11706584 218.16429431 159.53116886 218.13706025 160.94506836 218.10229492 C162.98580208 218.05339785 165.02543479 218.03100151 167.06665039 218.01342773 C168.29206543 217.99248047 169.51748047 217.9715332 170.7800293 217.94995117 C174.90121735 218.49475642 177.0037546 219.81039613 180.21508789 222.40405273 C182.21508789 225.40405273 182.21508789 225.40405273 182.21508789 240.40405273 C135.35508789 240.40405273 88.49508789 240.40405273 40.21508789 240.40405273 C40.21508789 225.40405273 40.21508789 225.40405273 44.21508789 220.40405273 C47.68311266 217.92009632 50.99270741 218.17335459 55.16821289 218.20874023 C56.15854523 218.21298508 56.15854523 218.21298508 57.16888428 218.21731567 C59.26780686 218.22846859 61.36629531 218.25356327 63.46508789 218.27905273 C64.89216504 218.28908889 66.31924891 218.29821363 67.74633789 218.30639648 C71.23622112 218.3266865 74.72517127 218.36584197 78.21508789 218.40405273 C78.21508789 210.15405273 78.21508789 201.90405273 78.21508789 193.40405273 C68.64508789 193.40405273 59.07508789 193.40405273 49.21508789 193.40405273 C50.86508789 197.03405273 52.51508789 200.66405273 54.21508789 204.40405273 C54.21508789 206.05405273 54.21508789 207.70405273 54.21508789 209.40405273 C50.91508789 209.07405273 47.61508789 208.74405273 44.21508789 208.40405273 C42.89508789 210.71405273 41.57508789 213.02405273 40.21508789 215.40405273 C38.89508789 215.40405273 37.57508789 215.40405273 36.21508789 215.40405273 C35.80516602 214.4772168 35.39524414 213.55038086 34.97290039 212.59545898 C34.43407227 211.39791992 33.89524414 210.20038086 33.34008789 208.96655273 C32.80641602 207.7715918 32.27274414 206.57663086 31.72290039 205.34545898 C30.53781555 202.31877643 30.53781555 202.31877643 28.21508789 201.40405273 C25.57508789 201.40405273 22.93508789 201.40405273 20.21508789 201.40405273 C17.57508789 207.01405273 14.93508789 212.62405273 12.21508789 218.40405273 C10.89508789 218.40405273 9.57508789 218.40405273 8.21508789 218.40405273 C7.67883789 217.41405273 7.14258789 216.42405273 6.59008789 215.40405273 C4.58521328 212.17756374 4.58521328 212.17756374 1.73852539 212.00561523 C-0.79241921 212.0270035 -3.26777785 212.1446534 -5.78491211 212.40405273 C-5.49894904 206.11286517 -3.00210661 201.49135631 -0.06225586 195.97827148 C1.3632522 193.58441028 1.3632522 193.58441028 1.21508789 191.40405273 C0.24571289 190.95030273 -0.72366211 190.49655273 -1.72241211 190.02905273 C-4.78491211 188.40405273 -4.78491211 188.40405273 -5.78491211 186.40405273 C-6.06309138 183.12771907 -6.23183022 179.85151127 -6.40600586 176.56811523 C-6.76345836 173.58320261 -7.37536254 171.98546313 -8.78491211 169.40405273 C-9.66822453 162.66879552 -9.66822453 162.66879552 -7.58178711 159.68139648 C-6.52694279 158.55463096 -5.4585385 157.44044478 -4.37866211 156.33764648 C-1.95595089 153.39832773 -0.88895506 150.10554418 0.35571289 146.54077148 C1.21508789 144.40405273 1.21508789 144.40405273 3.21508789 142.40405273 C4.20508789 142.40405273 5.19508789 142.40405273 6.21508789 142.40405273 C5.88508789 116.99405273 5.55508789 91.58405273 5.21508789 65.40405273 C4.88508789 65.40405273 4.55508789 65.40405273 4.21508789 65.40405273 C4.21508789 60.45405273 4.21508789 55.50405273 4.21508789 50.40405273 C0.45532227 50.55053711 0.45532227 50.55053711 -3.30444336 50.69702148 C-5.78491211 50.40405273 -5.78491211 50.40405273 -7.41567993 49.15649414 C-9.12569549 46.96789375 -9.16450961 45.82739751 -9.1730957 43.07202148 C-9.18255219 42.20101807 -9.19200867 41.33001465 -9.20175171 40.43261719 C-9.19567902 39.49506592 -9.18960632 38.55751465 -9.18334961 37.59155273 C-9.18621979 36.62628662 -9.18908997 35.66102051 -9.19204712 34.66650391 C-9.19408872 32.6255637 -9.18855218 30.58460396 -9.17602539 28.54370117 C-9.15997331 25.41597834 -9.17587106 22.28954778 -9.19506836 19.16186523 C-9.19308594 17.18009154 -9.18924231 15.19831866 -9.18334961 13.21655273 C-9.1894223 12.27900146 -9.195495 11.3414502 -9.20175171 10.37548828 C-9.19229523 9.50448486 -9.18283875 8.63348145 -9.1730957 7.73608398 C-9.17070892 6.97013916 -9.16832214 6.20419434 -9.16586304 5.41503906 C-8.18030342 0.21240856 -4.6968887 0.02423417 0 0 Z " fill="#D7EBFD" transform="translate(14.784912109375,9.595947265625)"/>
<path d="M0 0 C21.78 0 43.56 0 66 0 C66 8.25 66 16.5 66 25 C69.14402344 24.93039063 69.14402344 24.93039063 72.3515625 24.859375 C74.39694806 24.82811925 76.44230633 24.80386613 78.48779297 24.78027344 C79.90197795 24.76024157 81.31608097 24.73300752 82.72998047 24.69824219 C84.77071419 24.64934511 86.8103469 24.62694877 88.8515625 24.609375 C90.68968506 24.5779541 90.68968506 24.5779541 92.56494141 24.54589844 C96.68612946 25.09070368 98.78866671 26.4063434 102 29 C104 32 104 32 104 47 C57.14 47 10.28 47 -38 47 C-38 32 -38 32 -34 27 C-30.53197523 24.51604359 -27.22238048 24.76930186 -23.046875 24.8046875 C-22.38665344 24.8075174 -21.72643188 24.81034729 -21.04620361 24.81326294 C-18.94728103 24.82441585 -16.84879258 24.84951054 -14.75 24.875 C-13.32292285 24.88503616 -11.89583898 24.8941609 -10.46875 24.90234375 C-6.97886677 24.92263377 -3.48991662 24.96178923 0 25 C0 16.75 0 8.5 0 0 Z " fill="#EBEEF0" transform="translate(93,203)"/>
<path d="M0 0 C0.495 0.99 0.495 0.99 1 2 C1.94875 1.79375 2.8975 1.5875 3.875 1.375 C5.421875 1.189375 5.421875 1.189375 7 1 C7.99 1.99 7.99 1.99 9 3 C8.625 6.625 8.625 6.625 8 10 C8.99 10.33 9.98 10.66 11 11 C10.48223379 15.10447392 8.35372556 16.95699523 5.4375 19.75 C4.61121094 20.54921875 3.78492188 21.3484375 2.93359375 22.171875 C2.29550781 22.77515625 1.65742188 23.3784375 1 24 C1.2165625 24.64324219 1.433125 25.28648437 1.65625 25.94921875 C5.19215719 37.42454719 5.50223893 48.11439766 0 59 C-5.12730728 67.42549089 -12.39160287 73.55038813 -21.83203125 76.58984375 C-32.41466749 78.59196412 -42.42243653 77.08820868 -51.5390625 71.421875 C-56.52272331 67.81805513 -59.41356743 64.55604034 -62 59 C-62.55494141 58.08734375 -62.55494141 58.08734375 -63.12109375 57.15625 C-67.17015975 49.87073332 -67.28048254 41.09632456 -66 33 C-64.53712212 28.57734594 -62.57384378 24.8700241 -60 21 C-59.61714844 20.38769531 -59.23429688 19.77539062 -58.83984375 19.14453125 C-54.64678505 13.29829528 -46.75641182 9.1497674 -40 7 C-37.40781855 6.7835163 -34.96331827 6.66779824 -32.375 6.6875 C-31.67439453 6.68878906 -30.97378906 6.69007813 -30.25195312 6.69140625 C-24.19548154 6.80222915 -18.71467269 7.96596396 -13 10 C-12.31292969 9.278125 -11.62585938 8.55625 -10.91796875 7.8125 C-10.01691406 6.884375 -9.11585938 5.95625 -8.1875 5 C-7.29417969 4.071875 -6.40085938 3.14375 -5.48046875 2.1875 C-3 0 -3 0 0 0 Z " fill="#FD6570" transform="translate(234,142)"/>
<path d="M0 0 C9.80546828 6.78258789 17.64057597 16.79481238 19.83984375 28.71484375 C20.75955713 41.39482655 18.87489321 52.49060417 10.83984375 62.71484375 C8.02734375 65.21484375 8.02734375 65.21484375 5.83984375 66.71484375 C5.57171875 66.07417969 5.30359375 65.43351562 5.02734375 64.7734375 C1.50950781 57.00874042 -2.96308117 51.42998796 -10.84765625 47.83984375 C-20.38144746 44.60195239 -28.10867377 45.32585152 -37.16015625 49.71484375 C-43.86620969 53.99264772 -47.13442493 59.48509152 -50.16015625 66.71484375 C-54.80710074 63.24442411 -57.51865025 60.01957728 -59.97265625 54.71484375 C-60.27107422 54.1115625 -60.56949219 53.50828125 -60.87695312 52.88671875 C-65.31571605 43.66852036 -65.83381008 32.60668218 -62.53515625 22.90234375 C-57.41791883 10.74221859 -49.34813886 2.29045546 -37.421875 -3.375 C-25.71691914 -8.08528448 -10.64191792 -6.33126763 0 0 Z " fill="#685F69" transform="translate(148.16015625,88.28515625)"/>
<path d="M0 0 C3.78083615 0.66720638 5.84444041 2.18773273 8.96484375 4.328125 C12.17867109 6.11295705 15.37389981 6.54253891 18.98828125 7.0078125 C21.66746178 7.68355608 22.57154943 8.32839966 24.1875 10.5625 C25.05227689 13.37406931 25.63857442 16.1892864 26.24609375 19.06640625 C26.93795089 21.69449846 26.93795089 21.69449846 29.16015625 22.71484375 C29.82917969 22.99457031 30.49820313 23.27429688 31.1875 23.5625 C33.1875 26.5625 33.1875 26.5625 32.9375 30 C32.1875 33.5625 32.1875 33.5625 31.12890625 35.4140625 C29.88202774 38.25963586 30.16891858 40.41655539 30.375 43.5 C30.48937156 49.01001809 30.48937156 49.01001809 29.15234375 51.45703125 C27.8125 52.8125 27.8125 52.8125 25.1875 54.5625 C24.5275 54.5625 23.8675 54.5625 23.1875 54.5625 C23.6928125 55.51511719 24.198125 56.46773437 24.71875 57.44921875 C25.37553215 58.71587004 26.0317527 59.98281265 26.6875 61.25 C27.02136719 61.87583984 27.35523438 62.50167969 27.69921875 63.14648438 C29.72080221 67.08650927 30.1875 68.97161922 30.1875 73.5625 C26.8875 73.2325 23.5875 72.9025 20.1875 72.5625 C18.8675 74.8725 17.5475 77.1825 16.1875 79.5625 C14.8675 79.5625 13.5475 79.5625 12.1875 79.5625 C11.77757812 78.63566406 11.36765625 77.70882812 10.9453125 76.75390625 C10.40648437 75.55636719 9.86765625 74.35882813 9.3125 73.125 C8.77882812 71.93003906 8.24515625 70.73507813 7.6953125 69.50390625 C6.51022765 66.47722369 6.51022765 66.47722369 4.1875 65.5625 C1.5475 65.5625 -1.0925 65.5625 -3.8125 65.5625 C-6.4525 71.1725 -9.0925 76.7825 -11.8125 82.5625 C-13.1325 82.5625 -14.4525 82.5625 -15.8125 82.5625 C-16.34875 81.5725 -16.885 80.5825 -17.4375 79.5625 C-19.44237461 76.33601101 -19.44237461 76.33601101 -22.2890625 76.1640625 C-24.8200071 76.18545076 -27.29536574 76.30310067 -29.8125 76.5625 C-29.52653693 70.27131244 -27.0296945 65.64980357 -24.08984375 60.13671875 C-22.66433569 57.74285755 -22.66433569 57.74285755 -22.8125 55.5625 C-23.781875 55.10875 -24.75125 54.655 -25.75 54.1875 C-28.8125 52.5625 -28.8125 52.5625 -29.8125 50.5625 C-30.09067927 47.28616634 -30.25941811 44.00995853 -30.43359375 40.7265625 C-30.79104625 37.74164988 -31.40295043 36.14391039 -32.8125 33.5625 C-33.69581242 26.82724279 -33.69581242 26.82724279 -31.609375 23.83984375 C-30.55453068 22.71307822 -29.48612639 21.59889204 -28.40625 20.49609375 C-25.98353878 17.556775 -24.91654295 14.26399144 -23.671875 10.69921875 C-22.8125 8.5625 -22.8125 8.5625 -20.8125 6.5625 C-17.57580853 6.00612466 -14.33922865 5.67026795 -11.07421875 5.3203125 C-6.58898203 4.27823355 -4.38175088 0.87635018 0 0 Z " fill="#FEE077" transform="translate(38.8125,145.4375)"/>
<path d="M0 0 C1.78216164 -0.01902626 1.78216164 -0.01902626 3.60032654 -0.03843689 C4.88472122 -0.03550125 6.16911591 -0.03256561 7.49243164 -0.02954102 C8.8104628 -0.03478287 10.12849396 -0.04002472 11.48646545 -0.04542542 C14.27655604 -0.05435998 17.06636047 -0.05193011 19.85644531 -0.04199219 C23.42897424 -0.03050626 27.00051419 -0.05070459 30.57291317 -0.07990932 C33.98363843 -0.10268793 37.3941321 -0.09580413 40.80493164 -0.09204102 C42.72848732 -0.10889198 42.72848732 -0.10889198 44.69090271 -0.12608337 C45.88216263 -0.11670242 47.07342255 -0.10732147 48.30078125 -0.09765625 C49.34874374 -0.09749008 50.39670624 -0.09732391 51.47642517 -0.09715271 C54.94364403 0.53738653 56.12205313 1.60585695 58.21508789 4.40405273 C58.71629333 6.36997986 58.71629333 6.36997986 58.71679688 8.45068359 C58.72617783 9.23507309 58.73555878 10.01946259 58.745224 10.82762146 C58.73399002 11.66624222 58.72275604 12.50486298 58.71118164 13.36889648 C58.71263687 14.23922012 58.7140921 15.10954376 58.71559143 16.00624084 C58.71393355 17.84452668 58.70238456 19.68282655 58.68164062 21.52099609 C58.65272418 24.32832116 58.661026 27.13375262 58.67407227 29.94116211 C58.6678333 31.72958271 58.65944112 33.51799737 58.64868164 35.30639648 C58.65161728 36.14299301 58.65455292 36.97958954 58.65757751 37.84153748 C58.58254703 42.50006963 58.24382591 45.62472449 55.21508789 49.40405273 C52.17605198 50.92357069 49.04189897 50.43626117 45.71508789 50.36889648 C44.17212752 50.36285959 42.62915372 50.35970066 41.08618164 50.35913086 C38.6599614 50.35742191 36.23864323 50.34218244 33.81323242 50.27734375 C23.91106907 49.8927677 23.91106907 49.8927677 15.00024414 53.56079102 C12.50438069 56.05619634 10.35819177 58.60494605 8.21508789 61.40405273 C6.89508789 62.72405273 5.57508789 64.04405273 4.21508789 65.40405273 C4.21508789 60.45405273 4.21508789 55.50405273 4.21508789 50.40405273 C0.45532227 50.55053711 0.45532227 50.55053711 -3.30444336 50.69702148 C-5.78491211 50.40405273 -5.78491211 50.40405273 -7.41567993 49.15649414 C-9.12569549 46.96789375 -9.16450961 45.82739751 -9.1730957 43.07202148 C-9.18255219 42.20101807 -9.19200867 41.33001465 -9.20175171 40.43261719 C-9.19567902 39.49506592 -9.18960632 38.55751465 -9.18334961 37.59155273 C-9.18621979 36.62628662 -9.18908997 35.66102051 -9.19204712 34.66650391 C-9.19408872 32.6255637 -9.18855218 30.58460396 -9.17602539 28.54370117 C-9.15997331 25.41597834 -9.17587106 22.28954778 -9.19506836 19.16186523 C-9.19308594 17.18009154 -9.18924231 15.19831866 -9.18334961 13.21655273 C-9.1894223 12.27900146 -9.195495 11.3414502 -9.20175171 10.37548828 C-9.19229523 9.50448486 -9.18283875 8.63348145 -9.1730957 7.73608398 C-9.17070892 6.97013916 -9.16832214 6.20419434 -9.16586304 5.41503906 C-8.18030342 0.21240856 -4.6968887 0.02423417 0 0 Z " fill="#6CF4C2" transform="translate(14.784912109375,9.595947265625)"/>
<path d="M0 0 C31.68 0 63.36 0 96 0 C96.495 7.92 96.495 7.92 97 16 C98.42108274 19.77246852 98.42108274 19.77246852 100.16015625 23.3984375 C101 25 101 25 101 27 C64.7 27 28.4 27 -9 27 C-9.33 26.01 -9.66 25.02 -10 24 C-9.195625 23.649375 -8.39125 23.29875 -7.5625 22.9375 C-4.68449571 21.1826966 -4.68449571 21.1826966 -4.1875 17.75 C-3.93735199 14.04144379 -3.93735199 14.04144379 -4.1875 10.5 C-4 7 -4 7 0 0 Z " fill="#ECEEF0" transform="translate(72,176)"/>
<path d="M0 0 C0.80308594 0.01417969 1.60617188 0.02835938 2.43359375 0.04296875 C3.64208984 0.05263672 3.64208984 0.05263672 4.875 0.0625 C6.87109375 0.23046875 6.87109375 0.23046875 7.87109375 1.23046875 C7.96428824 2.76529845 7.98855175 4.30438957 7.98461914 5.84204102 C7.98450584 7.31345299 7.98450584 7.31345299 7.98439026 8.81459045 C7.97922897 9.88124435 7.97406769 10.94789825 7.96875 12.046875 C7.96733505 13.13306625 7.9659201 14.21925751 7.96446228 15.33836365 C7.95884423 18.8232595 7.94628867 22.30809217 7.93359375 25.79296875 C7.92858108 28.14908762 7.92401777 30.50520749 7.91992188 32.86132812 C7.90886894 38.65106339 7.89211326 44.44076156 7.87109375 50.23046875 C9.54171875 50.16859375 9.54171875 50.16859375 11.24609375 50.10546875 C14.87109375 50.23046875 14.87109375 50.23046875 16.87109375 52.23046875 C16.99609375 55.35546875 16.99609375 55.35546875 16.87109375 58.23046875 C13.66504943 59.83349091 10.19121375 59.31778719 6.67358398 59.26806641 C5.40271439 59.25606453 5.40271439 59.25606453 4.10617065 59.24382019 C1.29726197 59.21587125 -1.51149487 59.18042261 -4.3203125 59.14453125 C-6.26561653 59.12277256 -8.21092403 59.10132259 -10.15623474 59.08016968 C-14.23595779 59.03463051 -18.31561552 58.9853997 -22.39526367 58.93359375 C-27.63685529 58.86732052 -32.87849938 58.81007471 -38.12022495 58.75556374 C-42.13755276 58.71281739 -46.15481427 58.66536796 -50.17207146 58.61646652 C-52.10545122 58.59349519 -54.03884901 58.57199485 -55.97226143 58.55195999 C-58.66852272 58.52330379 -61.36462875 58.48835083 -64.06079102 58.45166016 C-64.8675679 58.44433365 -65.67434479 58.43700714 -66.50556946 58.42945862 C-72.01463561 58.34473939 -72.01463561 58.34473939 -73.12890625 57.23046875 C-73.25390625 54.73046875 -73.25390625 54.73046875 -73.12890625 52.23046875 C-72.63390625 51.73546875 -72.63390625 51.73546875 -72.12890625 51.23046875 C-69.48890625 51.23046875 -66.84890625 51.23046875 -64.12890625 51.23046875 C-64.12890625 45.62046875 -64.12890625 40.01046875 -64.12890625 34.23046875 C-57.29296875 33.25390625 -57.29296875 33.25390625 -55.12890625 33.23046875 C-53.12890625 35.23046875 -53.12890625 35.23046875 -52.93359375 38.92578125 C-52.94503535 40.40248543 -52.97100718 41.87908676 -53.00390625 43.35546875 C-53.04515625 45.95421875 -53.08640625 48.55296875 -53.12890625 51.23046875 C-43.55890625 51.23046875 -33.98890625 51.23046875 -24.12890625 51.23046875 C-24.14050781 48.42675781 -24.15210938 45.62304688 -24.1640625 42.734375 C-24.17185258 40.03051873 -24.17792962 37.32666369 -24.18383789 34.62280273 C-24.18887869 32.73803145 -24.19571123 30.8532641 -24.2043457 28.96850586 C-24.21642242 26.26545239 -24.22213693 23.56245044 -24.2265625 20.859375 C-24.23172379 20.01145889 -24.23688507 19.16354279 -24.24220276 18.28993225 C-24.2423982 16.26975807 -24.19096836 14.24968941 -24.12890625 12.23046875 C-23.12890625 11.23046875 -23.12890625 11.23046875 -20.87890625 11.09765625 C-19.97140625 11.10023437 -19.06390625 11.1028125 -18.12890625 11.10546875 C-16.76765625 11.10160156 -16.76765625 11.10160156 -15.37890625 11.09765625 C-13.12890625 11.23046875 -13.12890625 11.23046875 -12.12890625 12.23046875 C-12.04487125 13.58769919 -12.02069475 14.94876699 -12.0234375 16.30859375 C-12.00861328 17.14003906 -11.99378906 17.97148438 -11.97851562 18.828125 C-11.95399694 20.58056539 -11.94843929 22.33338518 -11.96289062 24.0859375 C-11.93098633 25.34083984 -11.93098633 25.34083984 -11.8984375 26.62109375 C-11.89432861 27.38454102 -11.89021973 28.14798828 -11.88598633 28.93457031 C-10.69450866 32.54780991 -8.13718042 33.97631575 -5.12890625 36.23046875 C-5.10908691 35.21098145 -5.08926758 34.19149414 -5.06884766 33.14111328 C-4.99287817 29.36514227 -4.90414816 25.58956102 -4.81152344 21.81396484 C-4.77319773 20.17862635 -4.73835118 18.54320251 -4.70703125 16.90771484 C-4.66145783 14.55925965 -4.60345258 12.2113938 -4.54296875 9.86328125 C-4.53141754 9.12989532 -4.51986633 8.3965094 -4.50796509 7.64089966 C-4.29846508 0.46533842 -4.29846508 0.46533842 0 0 Z " fill="#87C7FD" transform="translate(233.12890625,29.76953125)"/>
<path d="M0 0 C3.60401481 -0.08701039 7.20776012 -0.14039388 10.8125 -0.1875 C12.34874023 -0.22520508 12.34874023 -0.22520508 13.91601562 -0.26367188 C15.39038086 -0.27817383 15.39038086 -0.27817383 16.89453125 -0.29296875 C18.25348511 -0.31653442 18.25348511 -0.31653442 19.63989258 -0.34057617 C22 0 22 0 23.7565918 1.33081055 C26.37867944 4.85078173 26.12876567 8.27930526 26.1328125 12.50390625 C26.13410156 13.80263672 26.13539062 15.10136719 26.13671875 16.43945312 C26.13462402 17.11758057 26.1325293 17.79570801 26.13037109 18.49438477 C26.12508222 20.53083981 26.13028916 22.567068 26.13671875 24.60351562 C26.1310942 30.30962595 26.09971001 36.01852744 25.7421875 41.71484375 C25.69690918 42.45726318 25.65163086 43.19968262 25.60498047 43.96459961 C24.70824644 46.98157764 23.55702046 48.16573314 21 50 C18.32470763 50.26252781 16.0626577 50.30336654 13.41015625 50.15234375 C11.89316281 50.11332134 10.37605978 50.07838788 8.85888672 50.04711914 C8.07318298 50.02714874 7.28747925 50.00717834 6.47796631 49.98660278 C-8.36724967 49.21813729 -8.36724967 49.21813729 -21.05297852 55.71118164 C-23.3005529 58.35807658 -25.19259888 61.03305615 -27 64 C-27.33 64 -27.66 64 -28 64 C-28 59.38 -28 54.76 -28 50 C-29.4025 50.0825 -30.805 50.165 -32.25 50.25 C-35.39786118 50.22521369 -36.76798403 50.1301553 -39.5625 48.5625 C-41.66488173 44.81477605 -41.52129014 41.21304981 -41 37 C-39.01249118 35.01249118 -35.07675651 35.81555688 -32.3515625 35.7890625 C-30.77342715 35.76099269 -29.19530228 35.73232822 -27.6171875 35.703125 C-25.11979476 35.66184578 -22.62259751 35.62497466 -20.125 35.59863281 C-17.72093851 35.57105458 -15.31777809 35.52518178 -12.9140625 35.4765625 C-12.16710114 35.47330963 -11.42013977 35.47005676 -10.65054321 35.46670532 C-6.59630452 35.39510418 -6.59630452 35.39510418 -3.06787109 33.59521484 C-0.72955395 30.10217318 -0.80684955 27.43288483 -0.68359375 23.2421875 C-0.66281265 22.57913605 -0.64203156 21.91608459 -0.62062073 21.23294067 C-0.55520769 19.11373306 -0.49627895 16.994401 -0.4375 14.875 C-0.39430691 13.43878919 -0.35069236 12.00259098 -0.30664062 10.56640625 C-0.19953501 7.04440406 -0.09824425 3.52226175 0 0 Z " fill="#FEE177" transform="translate(73,24)"/>
<path d="M0 0 C1.20462891 -0.02126953 1.20462891 -0.02126953 2.43359375 -0.04296875 C4.5625 0.1875 4.5625 0.1875 6.5625 2.1875 C6.6875 5.3125 6.6875 5.3125 6.5625 8.1875 C9.2025 8.1875 11.8425 8.1875 14.5625 8.1875 C14.5625 15.1175 14.5625 22.0475 14.5625 29.1875 C4.9925 29.1875 -4.5775 29.1875 -14.4375 29.1875 C-14.7675 23.9075 -15.0975 18.6275 -15.4375 13.1875 C-18.91075181 12.0297494 -21.79817448 12.11883348 -25.4375 12.1875 C-25.7675 15.4875 -26.0975 18.7875 -26.4375 22.1875 C-50.8575 22.1875 -75.2775 22.1875 -100.4375 22.1875 C-99.4475 20.8675 -98.4575 19.5475 -97.4375 18.1875 C-97.1075 14.8875 -96.7775 11.5875 -96.4375 8.1875 C-66.4075 8.1875 -36.3775 8.1875 -5.4375 8.1875 C-5.4375 5.8775 -5.4375 3.5675 -5.4375 1.1875 C-3.84855928 -0.40144072 -2.18948576 0.01751589 0 0 Z " fill="#EBEEF0" transform="translate(194.4375,51.8125)"/>
<path d="M0 0 C21.78 0 43.56 0 66 0 C66 8.25 66 16.5 66 25 C44.22 25 22.44 25 0 25 C0 16.75 0 8.5 0 0 Z " fill="#A69AA6" transform="translate(93,203)"/>
<path d="M0 0 C22.77 0 45.54 0 69 0 C69.309375 13.303125 69.309375 13.303125 69.625 26.875 C69.71604004 29.65534668 69.80708008 32.43569336 69.90087891 35.30029297 C70.25169758 53.96169023 70.25169758 53.96169023 66.72949219 58.98925781 C64.26687706 61.45187294 62.03873855 63.31790233 59 65 C48.25 62.125 48.25 62.125 46 61 C46 41.2 46 21.4 46 1 C30.82 1 15.64 1 0 1 C0 0.67 0 0.34 0 0 Z " fill="#C4E2FE" transform="translate(162,88)"/>
<path d="M0 0 C6.39869032 5.26114537 10.39935983 10.36333239 12.8125 18.3125 C6.73660093 22.94236046 1.25384549 26.4446924 -6.1875 28.3125 C-7.3940625 28.6528125 -7.3940625 28.6528125 -8.625 29 C-21.59760553 30.58202506 -33.66597055 27.18116519 -44.1875 19.3125 C-45.1875 17.3125 -45.1875 17.3125 -44.5078125 15.2109375 C-40.31434416 6.35805989 -34.78165654 0.4343115 -25.5625 -3.1875 C-16.35623392 -6.06046792 -8.41922543 -4.45723699 0 0 Z " fill="#89C7FC" transform="translate(142.1875,137.6875)"/>
<path d="M0 0 C4.7102718 2.62833166 8.40037801 6.61325601 10.8125 11.4375 C11.30137732 17.23991278 11.66795438 22.59498286 9.1875 27.9375 C3.95201581 33.44853599 -0.64975253 37.39579166 -8.5 37.8125 C-14.63596095 37.65910098 -19.18982501 35.43517499 -23.5 31.125 C-26.94708636 25.63519579 -29.07480138 20.98134767 -28.1875 14.4375 C-25.69292033 7.37506778 -22.67824131 3.16366631 -16.1875 -0.5625 C-10.7121432 -2.38761893 -5.31037937 -2.38967072 0 0 Z " fill="#ECEEF0" transform="translate(47.1875,160.5625)"/>
<path d="M0 0 C-0.95729916 1.12588014 -1.91587895 2.2506715 -2.875 3.375 C-3.40867188 4.00148437 -3.94234375 4.62796875 -4.4921875 5.2734375 C-7.71270105 8.96117582 -7.71270105 8.96117582 -10.0234375 9.2734375 C-10.79945313 9.30695313 -11.57546875 9.34046875 -12.375 9.375 C-15.39927073 9.67694007 -16.89419351 9.9380645 -19.5625 11.5 C-21.73794821 15.28338819 -21.75867505 18.7451626 -21 23 C-18.87458538 26.40066339 -17.4307695 26.88251741 -13.5625 27.9375 C-10.08266863 28.17337318 -10.08266863 28.17337318 -7.1875 27.1875 C-4.64441488 24.64441488 -4.6552351 23.76736156 -4.1875 20.3125 C-3.27187857 14.01413438 0.25920789 10.94698506 5 7 C8 8 8 8 9.1640625 10.23046875 C10.97713574 16.23733289 11.00054981 22.63976822 8.3125 28.375 C5.03399237 33.99202356 0.29287416 38.9429269 -6 41 C-12.77331225 41.76104632 -19.22877591 42.03985687 -25 38 C-25.845625 37.484375 -26.69125 36.96875 -27.5625 36.4375 C-32.5979115 31.4020885 -35.28472846 25.50777631 -35.5625 18.375 C-35.18518293 11.33505777 -32.86792395 6.44788958 -27.6875 1.6875 C-18.15645548 -5.75482625 -10.19142822 -5.28444426 0 0 Z " fill="#ECECEE" transform="translate(215,165)"/>
<path d="M0 0 C0.12117188 0.69867188 0.24234375 1.39734375 0.3671875 2.1171875 C0.53476562 3.02726562 0.70234375 3.93734375 0.875 4.875 C1.11863281 6.23238281 1.11863281 6.23238281 1.3671875 7.6171875 C1.83044703 10.16505988 1.83044703 10.16505988 4 12 C4.24964905 15.0229187 4.24964905 15.0229187 4.24633789 18.95654297 C4.24812042 19.67217407 4.24990295 20.38780518 4.2517395 21.12512207 C4.25375483 23.49766053 4.23967571 25.86971312 4.22265625 28.2421875 C4.21852659 29.05177036 4.21439693 29.86135323 4.21014214 30.6954689 C4.18772161 34.97959403 4.15292236 39.26341561 4.1081543 43.54736328 C4.06427051 47.97515564 4.06212543 52.4019324 4.06969547 56.82989311 C4.06795459 60.23258407 4.03529002 63.6344773 3.99419975 67.03689957 C3.97987821 68.6691096 3.97722402 70.30146514 3.98643684 71.93371201 C3.99641952 74.21905508 3.96265676 76.49982411 3.91821289 78.78466797 C3.90995987 80.08435516 3.90170685 81.38404236 3.89320374 82.72311401 C3 86 3 86 -0.11988831 88.45095825 C-3.76581642 90.2113923 -6.961776 90.32965094 -11 90 C-11.16251775 79.83808675 -11.28673438 69.67648491 -11.3626852 59.51353455 C-11.39914691 54.79387358 -11.44856585 50.07510465 -11.52807617 45.35595703 C-11.60439141 40.79768164 -11.64604338 36.24026164 -11.6641407 31.68139648 C-11.67702942 29.94623352 -11.70219934 28.211115 -11.7401104 26.47631836 C-12.06096349 11.17945176 -12.06096349 11.17945176 -7.64477539 6.05859375 C-6.46286904 5.00096223 -5.24930267 3.97710279 -4 3 C-3.45045151 2.4419165 -2.90090302 1.88383301 -2.33470154 1.30883789 C-1 0 -1 0 0 0 Z " fill="#EBEEF0" transform="translate(32,62)"/>
<path d="M0 0 C1.26070313 0.01546875 2.52140625 0.0309375 3.8203125 0.046875 C6.875 0.25 6.875 0.25 7.875 1.25 C8.16018402 6.76355779 7.68297219 11.03878603 5.875 16.25 C4.875 17.25 4.875 17.25 2.4375 17.375 C-0.125 17.25 -0.125 17.25 -2.125 16.25 C-2.58648437 16.59667725 -3.04796875 16.94335449 -3.5234375 17.30053711 C-14.00398679 25.13117479 -24.52477256 32.19945953 -36.125 38.25 C-36.78209961 38.59901367 -37.43919922 38.94802734 -38.11621094 39.30761719 C-45.51472396 43.22532662 -53.0081142 46.7743641 -60.8125 49.8125 C-61.8015332 50.20828247 -61.8015332 50.20828247 -62.81054688 50.61206055 C-66.62992781 52.03642896 -69.2096411 52.50021976 -73.125 51.25 C-73.455 49.27 -73.785 47.29 -74.125 45.25 C-70.30460413 41.84599605 -65.77397333 40.4572169 -61.0625 38.6875 C-44.47311632 32.22380922 -29.4320612 23.8356593 -15.125 13.25 C-14.155625 12.54746094 -13.18625 11.84492188 -12.1875 11.12109375 C-11.506875 10.50363281 -10.82625 9.88617188 -10.125 9.25 C-9.95829727 6.20826106 -9.95829727 6.20826106 -10.125 3.25 C-7.64884028 -0.69522463 -4.3002036 -0.08829987 0 0 Z " fill="#A79BA7" transform="translate(237.125,5.75)"/>
<path d="M0 0 C0 5.28 0 10.56 0 16 C2.04944824 15.9592334 4.09889648 15.9184668 6.21044922 15.87646484 C12.97169918 15.74345127 19.73311657 15.62157597 26.49467278 15.50522423 C30.59536793 15.43431608 34.69592221 15.3596238 38.79638672 15.27636719 C42.75142586 15.19620117 46.70652746 15.12586583 50.66186905 15.06242752 C52.17305092 15.03644616 53.68417551 15.00688537 55.19521713 14.97373581 C57.307027 14.92800999 59.41867981 14.89486282 61.53076172 14.86474609 C62.73433319 14.84253998 63.93790466 14.82033386 65.177948 14.79745483 C68 15 68 15 70 17 C70.125 20.125 70.125 20.125 70 23 C66.79395568 24.60302216 63.32012 24.08731844 59.80249023 24.03759766 C58.95524384 24.02959641 58.10799744 24.02159515 57.2350769 24.01335144 C54.42616822 23.9854025 51.61741138 23.94995386 48.80859375 23.9140625 C46.86328972 23.89230381 44.91798222 23.87085384 42.97267151 23.84970093 C38.89294846 23.80416176 34.81329073 23.75493095 30.73364258 23.703125 C25.49205096 23.63685177 20.25040687 23.57960596 15.0086813 23.52509499 C10.99135349 23.48234864 6.97409198 23.43489921 2.95683479 23.38599777 C1.02345503 23.36302644 -0.90994276 23.3415261 -2.84335518 23.32149124 C-5.53961647 23.29283504 -8.2357225 23.25788208 -10.93188477 23.22119141 C-11.73866165 23.2138649 -12.54543854 23.20653839 -13.37666321 23.19898987 C-18.88572936 23.11427064 -18.88572936 23.11427064 -20 22 C-20.125 19.5 -20.125 19.5 -20 17 C-19.67 16.67 -19.34 16.34 -19 16 C-16.36 16 -13.72 16 -11 16 C-11 10.39 -11 4.78 -11 -1 C-4 -2 -4 -2 0 0 Z " fill="#9FACBA" transform="translate(180,65)"/>
<path d="M0 0 C3.98561154 2.62688033 6.23980531 5.28191592 7.75 9.8125 C8.25201239 15.93705118 7.84928344 18.93767646 3.75 23.8125 C0.20746634 27.55746416 -2.9542101 28.62585578 -7.97265625 28.9765625 C-13.03168252 28.61210435 -16.22840748 25.91474456 -19.625 22.25 C-22.4018912 18.08466319 -22.66073998 14.74137979 -22.25 9.8125 C-20.55516283 4.92197586 -17.80460621 1.76829474 -13.17578125 -0.53125 C-8.56339171 -2.10301763 -4.58443247 -1.67508109 0 0 Z " fill="#F4DACB" transform="translate(133.25,100.1875)"/>
<path d="M0 0 C4.3 0.3 4.3 0.3 6 2 C6.07194778 5.59738879 6.01727523 7.86320883 3.5703125 10.59765625 C2.24385637 11.71771361 0.89658216 12.81334424 -0.46484375 13.890625 C-4.23113711 17.02436678 -7.56945005 20.55918369 -10.9621582 24.08862305 C-12.27238734 25.42830512 -13.63253693 26.71879229 -15 28 C-15.66 28 -16.32 28 -17 28 C-17.226875 28.556875 -17.45375 29.11375 -17.6875 29.6875 C-19 32 -19 32 -21.5 34.125 C-24.17508537 37.20134818 -24.38669035 38.19547554 -24.9375 42.0625 C-25.56427958 45.95085478 -25.77029418 46.77029418 -28.6875 49.6875 C-32.78481384 51.31096397 -34.79574067 51.29949834 -39 50 C-42.02519989 47.94028944 -43.66926776 46.48426176 -44.48046875 42.84375 C-44.73571421 38.7046344 -44.34263585 36.53053292 -42.0625 33 C-38.92566789 30.95145658 -38.22157741 30.81618902 -34.71020508 30.7277832 C-29.43774671 30.22851025 -27.0803833 28.14565386 -23.57421875 24.35546875 C-23.0193428 23.78927322 -22.46446686 23.2230777 -21.89277649 22.63972473 C-20.13784173 20.84035224 -18.41285257 19.01521013 -16.6875 17.1875 C-15.51165785 15.97147474 -14.33393775 14.75726242 -13.15429688 13.54492188 C-10.99035336 11.31592095 -8.83774528 9.07718392 -6.69799805 6.82495117 C-5.80765869 5.89271729 -4.91731934 4.9604834 -4 4 C-2.91489136 2.81724487 -2.91489136 2.81724487 -1.80786133 1.6105957 C-1.21126709 1.07909912 -0.61467285 0.54760254 0 0 Z " fill="#6F6169" transform="translate(237,143)"/>
<path d="M0 0 C4 2 4 2 5 4 C5 8.95 5 13.9 5 19 C-41.86 19 -88.72 19 -137 19 C-137 17.68 -137 16.36 -137 15 C-91.46 15 -45.92 15 1 15 C0.67 10.05 0.34 5.1 0 0 Z " fill="#D1D1D6" transform="translate(192,231)"/>
<path d="M0 0 C3.4362291 -0.31964922 5.5623946 -0.21371426 8.6875 1.3125 C11.69570892 4.80852658 12.26011391 8.06927573 13.12890625 12.5390625 C13.75093374 15.13801382 13.75093374 15.13801382 15.96484375 16.1484375 C16.63644531 16.42945313 17.30804688 16.71046875 18 17 C20 20 20 20 19.75 23.4375 C19 27 19 27 17.94140625 28.8515625 C16.69452774 31.69713586 16.98141858 33.85405539 17.1875 36.9375 C17.30187156 42.44751809 17.30187156 42.44751809 15.96484375 44.89453125 C14.625 46.25 14.625 46.25 12 48 C11.34 48 10.68 48 10 48 C10.5053125 48.95261719 11.010625 49.90523437 11.53125 50.88671875 C12.18803215 52.15337004 12.8442527 53.42031265 13.5 54.6875 C13.83386719 55.31333984 14.16773437 55.93917969 14.51171875 56.58398438 C16.53330221 60.52400927 17 62.40911922 17 67 C13.7 66.67 10.4 66.34 7 66 C5.68 68.31 4.36 70.62 3 73 C1.68 73 0.36 73 -1 73 C-2.98 68.38 -4.96 63.76 -7 59 C1.99815271 48.50215517 1.99815271 48.50215517 8 46 C8.66 46 9.32 46 10 46 C10.03738281 44.98679688 10.07476562 43.97359375 10.11328125 42.9296875 C10.17898388 41.57809061 10.24542971 40.22652971 10.3125 38.875 C10.33505859 38.20984375 10.35761719 37.5446875 10.38085938 36.859375 C10.63317384 32.18008861 11.8757923 29.11173716 14 25 C14.5268362 22.40395813 14.5268362 22.40395813 14 20 C12.59977079 18.00401026 12.59977079 18.00401026 10.6875 16.25 C7.2859115 12.65032703 5.9887281 9.63882687 4.6875 4.921875 C3.76644736 2.34711421 2.39961598 1.24118068 0 0 Z " fill="#FED068" transform="translate(52,152)"/>
<path d="M0 0 C2.97 0 5.94 0 9 0 C9.11599547 7.60609388 9.20476637 15.21209574 9.25906086 22.81887341 C9.28512388 26.35132845 9.32045866 29.88317713 9.37719727 33.4152832 C9.44206064 37.47873661 9.46620732 41.54155598 9.48828125 45.60546875 C9.51408768 46.8702153 9.5398941 48.13496185 9.56648254 49.43803406 C9.56960831 59.21164662 9.56960831 59.21164662 6.71948242 62.3996582 C4 64 4 64 0 63 C0 42.21 0 21.42 0 0 Z " fill="#EBEEF0" transform="translate(217,89)"/>
<path d="M0 0 C0.88600159 2.10037231 0.88600159 2.10037231 0.88600159 4.10037231 C-35.41399841 4.10037231 -71.71399841 4.10037231 -109.11399841 4.10037231 C-109.44399841 3.11037231 -109.77399841 2.12037231 -110.11399841 1.10037231 C-107.18915206 -0.56337477 -105.06021453 -1.15762257 -101.70492554 -1.20501709 C-100.39057274 -1.23043327 -100.39057274 -1.23043327 -99.04966736 -1.25636292 C-98.09628479 -1.26480728 -97.14290222 -1.27325165 -96.16062927 -1.2819519 C-95.15049271 -1.2984227 -94.14035614 -1.31489349 -93.09960938 -1.3318634 C-89.75940744 -1.38315878 -86.41925515 -1.41961618 -83.07884216 -1.45431519 C-80.7600368 -1.48318094 -78.44123493 -1.51232901 -76.12243652 -1.54174805 C-71.26282139 -1.60069986 -66.4031959 -1.65148107 -61.54344177 -1.69747925 C-55.30620476 -1.75784519 -49.0696868 -1.8457266 -42.83289242 -1.94062614 C-38.04530882 -2.00922125 -33.25766104 -2.05961527 -28.46980476 -2.1048317 C-26.16955776 -2.12946528 -23.86937164 -2.16067072 -21.56930351 -2.19848251 C-18.35871292 -2.24926011 -15.14888708 -2.27470266 -11.93797302 -2.29367065 C-10.98256622 -2.31426041 -10.02715942 -2.33485016 -9.0428009 -2.35606384 C-2.62214882 -2.35624892 -2.62214882 -2.35624892 0 0 Z " fill="#D3D2D7" transform="translate(172.11399841308594,198.89962768554688)"/>
<path d="M0 0 C1.20462891 -0.02126953 1.20462891 -0.02126953 2.43359375 -0.04296875 C4.5625 0.1875 4.5625 0.1875 6.5625 2.1875 C6.6875 5.3125 6.6875 5.3125 6.5625 8.1875 C9.2025 8.1875 11.8425 8.1875 14.5625 8.1875 C14.5625 15.1175 14.5625 22.0475 14.5625 29.1875 C7.9625 29.1875 1.3625 29.1875 -5.4375 29.1875 C-5.46041487 25.2181345 -5.48034015 21.2489368 -5.49243164 17.27954102 C-5.49747057 15.92829614 -5.50430177 14.57705674 -5.51293945 13.22583008 C-5.52502419 11.28729566 -5.53019828 9.348722 -5.53515625 7.41015625 C-5.54039307 6.24234619 -5.54562988 5.07453613 -5.55102539 3.87133789 C-5.36727316 -0.47272301 -3.92818249 0.03142546 0 0 Z " fill="#FCDF78" transform="translate(194.4375,51.8125)"/>
<path d="M0 0 C0.9075 0.00257812 1.815 0.00515625 2.75 0.0078125 C4.11125 0.00394531 4.11125 0.00394531 5.5 0 C7.75 0.1328125 7.75 0.1328125 8.75 1.1328125 C8.83865208 4.0171507 8.86521296 6.87743408 8.84765625 9.76171875 C8.8462413 10.62594955 8.84482635 11.49018036 8.84336853 12.38059998 C8.83775239 15.15220542 8.82519719 17.9237313 8.8125 20.6953125 C8.80748708 22.5696603 8.80292381 24.44400935 8.79882812 26.31835938 C8.78777772 30.92320794 8.7705023 35.52799671 8.75 40.1328125 C4.79 40.1328125 0.83 40.1328125 -3.25 40.1328125 C-3.27464775 34.59692717 -3.29283496 29.0610735 -3.30493164 23.52514648 C-3.30997244 21.6403752 -3.31680498 19.75560785 -3.32543945 17.87084961 C-3.33751617 15.16779614 -3.34323068 12.46479419 -3.34765625 9.76171875 C-3.35281754 8.91380264 -3.35797882 8.06588654 -3.36329651 7.192276 C-3.36349195 5.17210182 -3.31206211 3.15203316 -3.25 1.1328125 C-2.25 0.1328125 -2.25 0.1328125 0 0 Z " fill="#69F2C0" transform="translate(212.25,40.8671875)"/>
<path d="M0 0 C3.24053616 1.37099607 4.74865329 2.76425147 6.75 5.625 C8.94698043 8.34674745 8.94698043 8.34674745 12.1640625 9.45703125 C14.61767804 9.47627852 14.61767804 9.47627852 18 9 C15.36125072 15.58605865 12.71544277 21.94520437 9 28 C7.1875 27.3125 7.1875 27.3125 5 26 C4.443125 24.700625 4.443125 24.700625 3.875 23.375 C2.24867086 20.74911507 2.24867086 20.74911507 -0.41015625 20.67578125 C-2.95690629 20.68652703 -5.46271041 20.78578231 -8 21 C-7.4943565 15.46640844 -6.04383132 11.43969425 -3.4375 6.5625 C-3.10814453 5.92634766 -2.77878906 5.29019531 -2.43945312 4.63476562 C-1.63546752 3.08505424 -0.81902334 1.54181678 0 0 Z " fill="#FE646E" transform="translate(17,201)"/>
<path d="M0 0 C9.82607203 0.36392859 17.42495397 5.50513465 24.109375 12.515625 C32.39012086 23.39693568 34.9708978 34.54227769 34 48 C31.95430748 56.96102269 27.7104368 65.71284334 20 71 C19.328125 69.2890625 19.328125 69.2890625 19 67 C20.109375 64.7734375 20.109375 64.7734375 21.75 62.375 C27.92448932 52.53889492 29.80187249 42.28657743 27.30859375 30.8203125 C23.8736249 19.52372037 17.6752431 10.33103003 7.265625 4.45703125 C4.86530223 3.24669901 2.45603033 2.09212824 0 1 C0 0.67 0 0.34 0 0 Z " fill="#584C58" transform="translate(134,84)"/>
<path d="M0 0 C22.77 0 45.54 0 69 0 C69.103125 8.9925 69.20625 17.985 69.3125 27.25 C69.35802002 30.0849707 69.40354004 32.91994141 69.45043945 35.84082031 C69.46504176 38.08657649 69.47778303 40.33234588 69.48828125 42.578125 C69.51386108 43.74520996 69.53944092 44.91229492 69.5657959 46.11474609 C69.56640015 47.23091309 69.56700439 48.34708008 69.56762695 49.49707031 C69.57873001 50.46525696 69.58983307 51.4334436 69.60127258 52.43096924 C69 55 69 55 64 59 C64 39.86 64 20.72 64 1 C42.88 1 21.76 1 0 1 C0 0.67 0 0.34 0 0 Z " fill="#CED1D7" transform="translate(162,88)"/>
<path d="M0 0 C1.28753174 0.00607269 1.28753174 0.00607269 2.60107422 0.01226807 C3.92147705 0.00939789 3.92147705 0.00939789 5.26855469 0.00646973 C7.13135056 0.00510755 8.99415591 0.00880625 10.85693359 0.01715088 C13.71457158 0.02785 16.57158088 0.01725675 19.42919922 0.00445557 C21.23649228 0.00577716 23.04378495 0.00833954 24.85107422 0.01226807 C25.70942871 0.0082196 26.5677832 0.00417114 27.45214844 0 C33.49615677 0.04797562 33.49615677 0.04797562 35.72607422 2.27789307 C35.17051866 6.83344862 35.17051866 6.83344862 33.72607422 8.27789307 C30.79240454 8.37902119 27.88277249 8.41758347 24.94873047 8.41070557 C24.06704697 8.41166229 23.18536346 8.41261902 22.27696228 8.41360474 C20.40819223 8.41428665 18.53941983 8.41243158 16.6706543 8.40826416 C13.80430794 8.40292239 10.93811875 8.40820548 8.07177734 8.41461182 C6.25992804 8.41395091 4.44807883 8.4126695 2.63623047 8.41070557 C1.77473892 8.4127298 0.91324738 8.41475403 0.02565002 8.4168396 C-6.044017 8.39284746 -6.044017 8.39284746 -8.27392578 7.27789307 C-8.39892578 4.90289307 -8.39892578 4.90289307 -8.27392578 2.27789307 C-5.61322373 -0.38280898 -3.619129 0.02872762 0 0 Z " fill="#EAEFF0" transform="translate(25.27392578125,21.72210693359375)"/>
<path d="M0 0 C1.25001549 0.00136711 1.25001549 0.00136711 2.52528381 0.00276184 C3.80883507 -0.00366585 3.80883507 -0.00366585 5.11831665 -0.01022339 C6.92982599 -0.01597159 8.74135842 -0.01646335 10.5528717 -0.01213074 C13.32727912 -0.00897331 16.10061793 -0.03241432 18.87489319 -0.05778503 C20.63335538 -0.0600582 22.39182045 -0.06076144 24.15028381 -0.05973816 C24.98160324 -0.06894791 25.81292267 -0.07815765 26.66943359 -0.08764648 C32.46842094 -0.04098662 32.46842094 -0.04098662 34.66287231 1.69400024 C35.90419006 3.30354309 35.90419006 3.30354309 35.65419006 5.42854309 C34.90419006 7.30354309 34.90419006 7.30354309 33.90419006 8.30354309 C30.88610943 8.40468009 27.89138494 8.44323218 24.87294006 8.43635559 C23.96668884 8.43731232 23.06043762 8.43826904 22.12672424 8.43925476 C20.20667959 8.43993662 18.28663265 8.43808191 16.36659241 8.43391418 C13.41683303 8.42856601 10.46722592 8.43385897 7.51747131 8.44026184 C5.65679389 8.43960106 3.79611657 8.4383199 1.93544006 8.43635559 C0.60265015 8.43939194 0.60265015 8.43939194 -0.75706482 8.44248962 C-6.98086005 8.41849298 -6.98086005 8.41849298 -8.09580994 7.30354309 C-8.28330994 4.86604309 -8.28330994 4.86604309 -8.09580994 2.30354309 C-5.47234102 -0.31992583 -3.57324254 0.04417807 0 0 Z " fill="#E5EFEE" transform="translate(25.095809936523438,38.69645690917969)"/>
<path d="M0 0 C5.09273475 5.6383849 8 11.40566374 8 19 C4.7 18.67 1.4 18.34 -2 18 C-3.32 20.31 -4.64 22.62 -6 25 C-7.32 25 -8.64 25 -10 25 C-11.98 20.38 -13.96 15.76 -16 11 C-13.69 10.34 -11.38 9.68 -9 9 C-6.80977172 7.16632736 -6.80977172 7.16632736 -5.1875 4.9375 C-2.12556054 1.06278027 -2.12556054 1.06278027 0 0 Z " fill="#FD616B" transform="translate(61,200)"/>
<path d="M0 0 C3.35247798 -0.30477073 5.32747317 -0.45059373 8.17211914 1.45532227 C10.86152121 5.19936364 10.55642385 8.46117871 10.49609375 12.96484375 C10.49754898 13.83516739 10.49900421 14.70549103 10.50050354 15.60218811 C10.49884565 17.44047395 10.48729666 19.27877382 10.46655273 21.11694336 C10.43763629 23.92426843 10.44593811 26.72969988 10.45898438 29.53710938 C10.45274541 31.32552998 10.44435323 33.11394463 10.43359375 34.90234375 C10.43652939 35.73894028 10.43946503 36.5755368 10.44248962 37.43748474 C10.36833357 42.0417251 10.13470149 45.35220849 7 49 C3.3125 49.8125 3.3125 49.8125 0 50 C0.33 49.34 0.66 48.68 1 48 C1.66 48 2.32 48 3 48 C3.07416092 41.80699281 3.12860756 35.61424416 3.16479492 29.42089844 C3.17988069 27.3140818 3.20035193 25.20729656 3.22631836 23.10058594 C3.26271053 20.0721868 3.2797285 17.04420291 3.29296875 14.015625 C3.30845261 13.07382385 3.32393646 12.13202271 3.33988953 11.16168213 C3.34011612 10.28107117 3.34034271 9.40046021 3.34057617 8.49316406 C3.34723801 7.72039124 3.35389984 6.94761841 3.36076355 6.15142822 C2.9085421 3.45458704 1.76221857 2.04878434 0 0 Z " fill="#15E69E" transform="translate(63,10)"/>
<path d="M0 0 C6.47630923 -0.36658354 6.47630923 -0.36658354 8.875 1.3125 C11.29157472 4.93736209 11.12876661 8.28028335 11.1328125 12.50390625 C11.13474609 14.45200195 11.13474609 14.45200195 11.13671875 16.43945312 C11.13357666 17.45664429 11.13357666 17.45664429 11.13037109 18.49438477 C11.12508222 20.53083981 11.13028916 22.567068 11.13671875 24.60351562 C11.11728005 44.32407993 11.11728005 44.32407993 8.25 48.625 C5.60426893 50.24183566 4.04838235 50.33870915 1 50 C1.33 49.34 1.66 48.68 2 48 C2.66 48 3.32 48 4 48 C4.09888089 41.80701358 4.17147486 35.61448668 4.21972656 29.42089844 C4.23984126 27.31404618 4.26713667 25.20724975 4.30175781 23.10058594 C4.35028168 20.07212553 4.37297016 17.04440322 4.390625 14.015625 C4.41127014 13.07382385 4.43191528 12.13202271 4.45318604 11.16168213 C4.52829581 5.86919544 4.52829581 5.86919544 1.97558594 1.37402344 C1.32364258 0.9205957 0.67169922 0.46716797 0 0 Z " fill="#FED166" transform="translate(88,24)"/>
<path d="M0 0 C1.65 0 3.3 0 5 0 C9.39978273 8.41697566 10.44798088 16.61233578 8.31640625 26.015625 C4.83850722 36.34830427 -1.35733841 44.18528658 -11.125 49.25 C-15.38928761 51.33932967 -18.99750612 52.13238962 -23.75 52.0625 C-24.54921875 52.05347656 -25.3484375 52.04445312 -26.171875 52.03515625 C-26.77515625 52.02355469 -27.3784375 52.01195312 -28 52 C-28 51.67 -28 51.34 -28 51 C-27.23816406 50.85304687 -26.47632813 50.70609375 -25.69140625 50.5546875 C-14.99592151 48.23132377 -7.8516146 44.25980704 -1.44140625 35.26171875 C3.81976496 27.00638507 3.74974416 18.54481984 3 9 C2.27170382 5.74778084 1.31780895 3.07488755 0 0 Z " fill="#FD4A58" transform="translate(229,167)"/>
<path d="M0 0 C1.21236328 0.01353516 1.21236328 0.01353516 2.44921875 0.02734375 C3.37154297 0.04474609 3.37154297 0.04474609 4.3125 0.0625 C4.3125 0.3925 4.3125 0.7225 4.3125 1.0625 C2.5490625 1.371875 2.5490625 1.371875 0.75 1.6875 C-4.68137032 3.03810719 -8.84376449 6.17398104 -11.859375 10.8984375 C-14.05992709 16.64893683 -13.57766478 23.9624242 -11.125 29.5625 C-8.75912467 33.62069185 -5.89536216 35.10884971 -1.6875 37.0625 C-0.4809375 37.68125 -0.4809375 37.68125 0.75 38.3125 C1.265625 38.56 1.78125 38.8075 2.3125 39.0625 C-3.65854496 39.56008708 -7.68648974 38.40378633 -12.6875 35.0625 C-16.98981376 30.76018624 -19.28113783 25.75464936 -20.1875 19.75 C-19.39492407 13.90475254 -17.2191346 8.49442033 -12.90234375 4.34765625 C-8.63204776 1.21973244 -5.21712708 -0.07561054 0 0 Z " fill="#D5D4D4" transform="translate(38.6875,158.9375)"/>
<path d="M0 0 C-0.6496875 0.67095703 -0.6496875 0.67095703 -1.3125 1.35546875 C-4.91552816 5.1027842 -4.91552816 5.1027842 -6.375 9.9375 C-6.25125 10.618125 -6.1275 11.29875 -6 12 C-4.21863302 12.78042642 -4.21863302 12.78042642 -2 13 C0.21765724 11.82060078 0.21765724 11.82060078 2.25 10.0625 C2.95640625 9.49660156 3.6628125 8.93070313 4.390625 8.34765625 C4.92171875 7.90292969 5.4528125 7.45820313 6 7 C6.41856088 11.269321 6.48038638 13.3303705 3.9375 16.875 C0.38741097 19.44314951 -1.62144507 20.07681675 -6 20 C-11.46835443 17.06329114 -11.46835443 17.06329114 -13 14 C-13.65157772 9.26209912 -13.65620107 6.00480788 -11 1.9375 C-6.97116741 -0.66445438 -4.71992657 -0.39999378 0 0 Z " fill="#FB6570" transform="translate(206,174)"/>
<path d="M0 0 C2.97 0 5.94 0 9 0 C9 6.93 9 13.86 9 21 C6.03 21 3.06 21 0 21 C0 14.07 0 7.14 0 0 Z " fill="#EAEEF0" transform="translate(200,60)"/>
<path d="M0 0 C0 5.28 0 10.56 0 16 C-3.63 16 -7.26 16 -11 16 C-11 10.39 -11 4.78 -11 -1 C-4 -2 -4 -2 0 0 Z " fill="#FB6772" transform="translate(180,65)"/>
<path d="M0 0 C0 0.33 0 0.66 0 1 C-0.87011719 1.14695313 -0.87011719 1.14695313 -1.7578125 1.296875 C-8.24408324 2.53847138 -12.61429641 4.48175732 -17.25 9.375 C-21.31405005 15.47107507 -21.9442504 21.83363646 -21 29 C-18.90690858 35.31821551 -15.59060129 38.92203105 -9.76953125 42.02734375 C-8 43 -8 43 -6 45 C-12.42471185 44.73230367 -16.50616442 42.6254542 -21 38 C-25.71788538 31.48156899 -27.26220994 24.94239653 -26 17 C-24.15994807 10.73299959 -20.33725525 6.61447033 -15 3 C-9.6981142 0.10806229 -5.88200885 -0.30957941 0 0 Z " fill="#D6CDD2" transform="translate(206,161)"/>
<path d="M0 0 C2.14576637 -0.02685938 4.29162645 -0.04633088 6.4375 -0.0625 C7.63246094 -0.07410156 8.82742187 -0.08570313 10.05859375 -0.09765625 C13 0 13 0 14 1 C14.1875 3.4375 14.1875 3.4375 14 6 C12 8 12 8 8.19287109 8.22705078 C6.5530258 8.22673346 4.91315983 8.21539681 3.2734375 8.1953125 C2.41062164 8.1924826 1.54780579 8.18965271 0.65884399 8.18673706 C-2.1025772 8.17552333 -4.8636765 8.15041684 -7.625 8.125 C-9.49478699 8.11497173 -11.36457905 8.10584562 -13.234375 8.09765625 C-17.82304109 8.07558012 -22.41146593 8.04104234 -27 8 C-27.33 7.34 -27.66 6.68 -28 6 C-27.2886792 5.98541748 -26.5773584 5.97083496 -25.84448242 5.95581055 C-22.62493668 5.88138994 -19.40643482 5.78471 -16.1875 5.6875 C-15.06794922 5.66494141 -13.94839844 5.64238281 -12.79492188 5.61914062 C-11.72177734 5.58369141 -10.64863281 5.54824219 -9.54296875 5.51171875 C-8.55321045 5.48553467 -7.56345215 5.45935059 -6.54370117 5.43237305 C-3.63663677 4.93823627 -2.76320293 4.3097569 -1 2 C-0.67 1.34 -0.34 0.68 0 0 Z " fill="#ECEDE6" transform="translate(72,54)"/>
<path d="M0 0 C7.5 4.5 7.5 4.5 9 9 C9.0685495 10.89470816 9.08480372 12.7916834 9.0625 14.6875 C9.05347656 15.68136719 9.04445312 16.67523438 9.03515625 17.69921875 C9.02355469 18.45847656 9.01195312 19.21773437 9 20 C6.03 20 3.06 20 0 20 C0 13.4 0 6.8 0 0 Z " fill="#EBEEF0" transform="translate(221,61)"/>
<path d="M0 0 C1.32 0 2.64 0 4 0 C4 16.17 4 32.34 4 49 C3.01 49 2.02 49 1 49 C0.67 32.83 0.34 16.66 0 0 Z " fill="#63B8FE" transform="translate(237,31)"/>
<path d="M0 0 C1.65 0 3.3 0 5 0 C5 8.25 5 16.5 5 25 C3.35 25 1.7 25 0 25 C0 16.75 0 8.5 0 0 Z " fill="#847784" transform="translate(154,203)"/>
<path d="M0 0 C0.74378906 0.2371875 1.48757812 0.474375 2.25390625 0.71875 C1.57454302 6.00543117 -2.39042266 9.06775334 -6.0234375 12.6328125 C-8.78375469 14.74760357 -9.96152018 15.3803465 -13.37109375 15.34375 C-14.48484375 15.1375 -15.59859375 14.93125 -16.74609375 14.71875 C-14.77534949 12.35385689 -12.78252937 10.02642335 -10.74609375 7.71875 C-10.08480469 6.9659375 -9.42351562 6.213125 -8.7421875 5.4375 C-8.06285156 4.7053125 -7.38351563 3.973125 -6.68359375 3.21875 C-6.05324219 2.5278125 -5.42289063 1.836875 -4.7734375 1.125 C-2.74609375 -0.28125 -2.74609375 -0.28125 0 0 Z " fill="#CA8D5C" transform="translate(242.74609375,152.28125)"/>
<path d="M0 0 C5.59731932 -0.28951652 9.1683016 -0.18452849 14 3 C18.09255202 7.42438056 19.37047619 10.86287178 19.28125 16.94140625 C18.67307259 21.39292699 15.783529 24.17169792 12.8125 27.3125 C8.97368574 29.61578856 5.41030263 29.80782995 1 30 C1 29.67 1 29.34 1 29 C1.60328125 28.85304688 2.2065625 28.70609375 2.828125 28.5546875 C7.05019004 27.36978537 9.49214603 26.55863937 12.5 23.25 C14.8587881 18.13929246 15.53589544 14.75654616 13.875 9.3125 C11.87197185 5.77381693 10.48851728 4.06139657 7 2 C3.310252 1.19777849 3.310252 1.19777849 0 1 C0 0.67 0 0.34 0 0 Z " fill="#E7C5B8" transform="translate(122,99)"/>
<path d="M0 0 C1.79133978 -0.05391993 3.58313899 -0.09275571 5.375 -0.125 C6.37273437 -0.14820313 7.37046875 -0.17140625 8.3984375 -0.1953125 C11 0 11 0 13 2 C13.1875 4.5625 13.1875 4.5625 13 7 C12 8 12 8 9.27734375 8.09765625 C7.62412109 8.08025391 7.62412109 8.08025391 5.9375 8.0625 C4.83277344 8.05347656 3.72804688 8.04445313 2.58984375 8.03515625 C1.30787109 8.01775391 1.30787109 8.01775391 0 8 C0 5.36 0 2.72 0 0 Z " fill="#ECEEED" transform="translate(73,36)"/>
<path d="M0 0 C0.40625 2.07421875 0.40625 2.07421875 0 5 C-1.90159228 7.5453605 -4.18087473 9.65007239 -6.5 11.8125 C-7.12003906 12.40998047 -7.74007812 13.00746094 -8.37890625 13.62304688 C-9.90825488 15.09357441 -11.45271466 16.5483573 -13 18 C-13.66 17.34 -14.32 16.68 -15 16 C-14.92691817 11.76856221 -13.07280762 9.57869135 -10.1484375 6.65039062 C-9.64570313 6.16763672 -9.14296875 5.68488281 -8.625 5.1875 C-8.13 4.68541016 -7.635 4.18332031 -7.125 3.66601562 C-3.39414328 0 -3.39414328 0 0 0 Z " fill="#E3A56F" transform="translate(234,142)"/>
<path d="M0 0 C0.99 0 1.98 0 3 0 C3.12807946 12.70832863 2.79541627 25.31595119 2 38 C1.34 38 0.68 38 0 38 C0 25.46 0 12.92 0 0 Z " fill="#08E59C" transform="translate(218,42)"/>
<path d="M0 0 C6.39869032 5.26114537 10.39935983 10.36333239 12.8125 18.3125 C12.1525 18.3125 11.4925 18.3125 10.8125 18.3125 C10.50957031 17.72082031 10.20664063 17.12914062 9.89453125 16.51953125 C5.30934918 7.87117245 -0.71492743 1.47002419 -10.1875 -1.6875 C-11.52275717 -1.76723476 -12.86162083 -1.79521338 -14.19921875 -1.78515625 C-14.95654297 -1.78193359 -15.71386719 -1.77871094 -16.49414062 -1.77539062 C-17.67266602 -1.76282227 -17.67266602 -1.76282227 -18.875 -1.75 C-19.67228516 -1.74548828 -20.46957031 -1.74097656 -21.29101562 -1.73632812 C-23.25654257 -1.7245585 -25.22203085 -1.70662348 -27.1875 -1.6875 C-18.66661208 -7.36809195 -8.49056178 -4.4950033 0 0 Z " fill="#67B1F1" transform="translate(142.1875,137.6875)"/>
<path d="M0 0 C4.875 3.625 4.875 3.625 6 7 C6.0685495 8.89470816 6.08480372 10.7916834 6.0625 12.6875 C6.05347656 13.68136719 6.04445312 14.67523438 6.03515625 15.69921875 C6.02355469 16.45847656 6.01195312 17.21773437 6 18 C3.03 18 0.06 18 -3 18 C-3 17.67 -3 17.34 -3 17 C-1.35 17 0.3 17 2 17 C1.85848172 14.9163691 1.71162064 12.83310062 1.5625 10.75 C1.48128906 9.58984375 1.40007812 8.4296875 1.31640625 7.234375 C1.06752213 4.69022624 0.71885058 2.44046752 0 0 Z " fill="#CDD1D9" transform="translate(224,63)"/>
<path d="M0 0 C3.875 0.875 3.875 0.875 5 2 C5.01676178 3.92873499 4.96268831 5.85816892 4.87890625 7.78515625 C4.83056641 8.95498047 4.78222656 10.12480469 4.73242188 11.33007812 C4.67634766 12.56177734 4.62027344 13.79347656 4.5625 15.0625 C4.51029297 16.29806641 4.45808594 17.53363281 4.40429688 18.80664062 C4.27413667 21.87132191 4.13915654 24.93571613 4 28 C3.34 28 2.68 28 2 28 C1.97494385 27.22285645 1.9498877 26.44571289 1.92407227 25.64501953 C1.80833204 22.13816931 1.68550648 18.63160255 1.5625 15.125 C1.52318359 13.90167969 1.48386719 12.67835937 1.44335938 11.41796875 C1.40146484 10.25136719 1.35957031 9.08476563 1.31640625 7.8828125 C1.27974854 6.80402832 1.24309082 5.72524414 1.20532227 4.61376953 C1.16623357 2.01930464 1.16623357 2.01930464 0 0 Z " fill="#FFD264" transform="translate(196,52)"/>
<path d="M0 0 C2.97 0 5.94 0 9 0 C9 2.31 9 4.62 9 7 C6.03 7 3.06 7 0 7 C0 4.69 0 2.38 0 0 Z " fill="#D4E7F9" transform="translate(180,74)"/>
<path d="M0 0 C-1.37195861 3.09709467 -2.93792501 5.15870525 -5.375 7.5 C-6.30119141 8.39912109 -6.30119141 8.39912109 -7.24609375 9.31640625 C-8.11427734 10.14978516 -8.11427734 10.14978516 -9 11 C-10.2065625 12.2065625 -10.2065625 12.2065625 -11.4375 13.4375 C-11.953125 13.953125 -12.46875 14.46875 -13 15 C-13.36668246 11.27925153 -13.38480414 9.53773912 -11.171875 6.4453125 C-10.37265625 5.67960937 -9.5734375 4.91390625 -8.75 4.125 C-7.96109375 3.34382813 -7.1721875 2.56265625 -6.359375 1.7578125 C-4 0 -4 0 0 0 Z " fill="#0AE59C" transform="translate(32,60)"/>
<path d="M0 0 C0.73605469 0.08636719 1.47210938 0.17273438 2.23046875 0.26171875 C0.64426748 4.14111384 -1.86874112 6.59532962 -4.83203125 9.51171875 C-5.73050781 10.40375 -6.62898438 11.29578125 -7.5546875 12.21484375 C-9.76953125 14.26171875 -9.76953125 14.26171875 -10.76953125 14.26171875 C-11.10787941 11.03307444 -10.97269707 9.57881875 -9.1953125 6.8046875 C-8.49792969 6.02738281 -7.80054688 5.25007813 -7.08203125 4.44921875 C-6.39753906 3.65902344 -5.71304688 2.86882812 -5.0078125 2.0546875 C-2.76953125 0.26171875 -2.76953125 0.26171875 0 0 Z " fill="#FED168" transform="translate(55.76953125,73.73828125)"/>
<path d="M0 0 C0 2.64 0 5.28 0 8 C-2.97 8 -5.94 8 -9 8 C-8.67 5.69 -8.34 3.38 -8 1 C-5.23735711 0.40267181 -2.83967231 0 0 0 Z " fill="#D2E6F9" transform="translate(209,73)"/>
<path d="M0 0 C-1.58956284 3.81316478 -4.00760697 6.372784 -6.875 9.3125 C-7.73867187 10.21613281 -8.60234375 11.11976563 -9.4921875 12.05078125 C-10.31976563 12.69402344 -11.14734375 13.33726562 -12 14 C-14.15673828 13.62182617 -14.15673828 13.62182617 -16 13 C-13.90474642 10.82404478 -11.79972937 8.65936733 -9.6875 6.5 C-8.79514648 5.56994141 -8.79514648 5.56994141 -7.88476562 4.62109375 C-7.30791016 4.03457031 -6.73105469 3.44804687 -6.13671875 2.84375 C-5.60780029 2.29912109 -5.07888184 1.75449219 -4.53393555 1.19335938 C-3 0 -3 0 0 0 Z " fill="#E1A56D" transform="translate(243,152)"/>
<path d="M0 0 C0.66 0.33 1.32 0.66 2 1 C-0.64 6.61 -3.28 12.22 -6 18 C-7.32 18 -8.64 18 -10 18 C-9.69707031 17.53851563 -9.39414062 17.07703125 -9.08203125 16.6015625 C-5.64571231 11.25147825 -2.75750007 5.7262129 0 0 Z " fill="#FD515D" transform="translate(33,210)"/>
<path d="M0 0 C0.66 0.33 1.32 0.66 2 1 C1.505 1.495 1.01 1.99 0.5 2.5 C-1.70136649 6.16894414 -1.27027433 8.74317925 -1 13 C-0.67 13.99 -0.34 14.98 0 16 C0.99 16.33 1.98 16.66 3 17 C2.34 17.33 1.68 17.66 1 18 C-1.70902496 15.90050565 -3.73024693 14.2529027 -4.47265625 10.8046875 C-4.62620359 6.75904887 -4.54296056 4.69566822 -2 1.4375 C-1.34 0.963125 -0.68 0.48875 0 0 Z " fill="#FC515E" transform="translate(197,175)"/>
<path d="M0 0 C3.81316756 -0.57775266 5.76668587 0.28314366 8.8125 2.4375 C10.64453125 3.80859375 10.64453125 3.80859375 12 5 C12 5.33 12 5.66 12 6 C7.5428126 5.73781251 5.48477302 5.42288711 2.0625 2.4375 C1.381875 1.633125 0.70125 0.82875 0 0 Z " fill="#FDD26B" transform="translate(37,146)"/>
<path d="M0 0 C0 0.66 0 1.32 0 2 C-3.3 2.33 -6.6 2.66 -10 3 C-10 2.34 -10 1.68 -10 1 C-6.61981469 -0.04005702 -3.5219721 -0.08004482 0 0 Z " fill="#FD4F5C" transform="translate(19,219)"/>
</svg>
